<svg xmlns="http://www.w3.org/2000/svg" viewBox="0 0 10000 10000">
    <defs>
        <linearGradient id="z"><stop stop-color="#fff"/><stop offset=".5" stop-color="#ffd0d0"/><stop offset="1" stop-color="#f40"/></linearGradient>
        <linearGradient id="a" href="#z" x1="4106" x2="2776" y1="3975" y2="3975" gradientUnits="userSpaceOnUse"/>
        <linearGradient id="b" href="#z" x1="6025" x2="6025" y1="5894" y2="7224" gradientUnits="userSpaceOnUse"/>
        <linearGradient id="c" href="#z" x1="2850" x2="2850" y1="5828" y2="6867" gradientUnits="userSpaceOnUse"/>
        <linearGradient id="d" href="#z" x1="3900" x2="1900" y1="6085" y2="8085" gradientUnits="userSpaceOnUse"/>
        <linearGradient id="e" href="#z" x1="4172" x2="3133" y1="7150" y2="7150" gradientUnits="userSpaceOnUse"/>
    </defs>

    <!-- background -->
    <!--<circle cx="5000" cy="5000" r="5000" fill="#000"/>-->
    <rect x="0" y="0" width="10000" height="10000" fill="#000"/>

    <!-- center top -->
    <path fill="#fff" d="M4164 6163q7-6 1795-1696a170 170 0 0 0 54-137l-20-294a34 34 0 0 0-32-32l-292-21a170 170 0 0 0-137 53L3837 5835c164 131 264 246 328 330"/>

    <!-- center wings (left/right) -->
    <path fill="#fff" d="m4491 6847 1170-888a1717 1717 0 0 1 1006-350l1123-24a1288 1288 0 0 0 886-377l723-723a17 17 0 0 0-13-29l-85 5-2750 148a862 862 0 0 0-544 235L4331 6427c71 120 122 270 160 420M3154 5508l889-1170a1723 1723 0 0 0 350-1008l22-1122a1287 1287 0 0 1 377-886l721-717a17 17 0 0 1 29 13l-150 2829a858 858 0 0 1-233 543S3572 5667 3575 5667c-163-80-173-90-423-158"/>

    <!-- fire top left -->
    <path fill="url(#a)" d="M2806 5458s-6 5-9 6a17 17 0 0 1-19-8c-2-3-3-7-2-10 560-1520 877-2060 1330-2960-10 350-20 810-20 810-35 420-210 750-430 1050z"/>

    <!-- fire top right -->
    <path fill="url(#b)" d="M4543 7192s-5 6-6 9a17 17 0 0 0 8 19c3 2 7 3 11 2 1520-560 2060-870 2960-1320-860 0-1260 0-1860 450z"/>

    <!-- fire bottom left -->
    <path fill="url(#c)" d="M3367 5885 2360 6952a17 17 0 0 1-29-16l123-457a400 400 0 0 1 73-148l452-594c63 11 280 88 390 150"/>

    <!-- fire bottom center -->
    <path fill="url(#d)" d="M3627 6057q-2 0-1654 1750a85 85 0 0 0-22 36l-66 248a17 17 0 0 0 21 21l249-66a85 85 0 0 0 37-21l1750-1652c-85-106-144-174-316-316"/>

    <!-- fire bottom right -->
    <path fill="url(#e)" d="M4112 6633 3046 7639a17 17 0 0 0 16 29l457-123a400 400 0 0 0 149-73l594-452c-13-56-70-240-150-390"/>
</svg>
