<?xml version="1.0" encoding="UTF-8" standalone="no"?>
<!-- Created with Inkscape (http://www.inkscape.org/) -->

<svg
   width="10000"
   height="10000"
   viewBox="0 0 10000 10000"
   version="1.1"
   id="svg1"
   sodipodi:docname="voboost-logo-grid.svg"
   inkscape:version="1.4.2 (ebf0e940, 2025-05-08)"
   xmlns:inkscape="http://www.inkscape.org/namespaces/inkscape"
   xmlns:sodipodi="http://sodipodi.sourceforge.net/DTD/sodipodi-0.dtd"
   xmlns="http://www.w3.org/2000/svg"
   xmlns:svg="http://www.w3.org/2000/svg">
  <sodipodi:namedview
     id="namedview1"
     pagecolor="#ffffff"
     bordercolor="#000000"
     borderopacity="0.25"
     inkscape:showpageshadow="2"
     inkscape:pageopacity="0.0"
     inkscape:pagecheckerboard="false"
     inkscape:deskcolor="#d1d1d1"
     inkscape:document-units="px"
     inkscape:lockguides="false"
     showgrid="true"
     showguides="false"
     inkscape:zoom="0.035355339"
     inkscape:cx="4171.93"
     inkscape:cy="7905.4538"
     inkscape:window-width="1512"
     inkscape:window-height="916"
     inkscape:window-x="0"
     inkscape:window-y="38"
     inkscape:window-maximized="0"
     inkscape:current-layer="layer1">
    <sodipodi:guide
       position="0,10000"
       orientation="0,10000"
       id="guide1"
       inkscape:locked="false" />
    <sodipodi:guide
       position="10000,10000"
       orientation="10000,0"
       id="guide2"
       inkscape:locked="false" />
    <sodipodi:guide
       position="10000,0"
       orientation="0,-10000"
       id="guide3"
       inkscape:locked="false" />
    <sodipodi:guide
       position="0,0"
       orientation="-10000,0"
       id="guide4"
       inkscape:locked="false" />
    <inkscape:grid
       id="grid4"
       units="px"
       originx="0"
       originy="0"
       spacingx="10"
       spacingy="10"
       empcolor="#0099e5"
       empopacity="0.30196078"
       color="#0099e5"
       opacity="0.14901961"
       empspacing="5"
       enabled="true"
       visible="true" />
  </sodipodi:namedview>
  <defs
     id="defs1" />
  <g
     inkscape:label="Слой 1"
     inkscape:groupmode="layer"
     id="layer1">
    <circle
       style="opacity:0.55;fill:#808000;stroke-width:0.367338"
       id="path2-7-6"
       cy="7480"
       cx="2520"
       r="1800" />
    <circle
       style="opacity:0.55;fill:#000000;stroke-width:17.6769;fill-opacity:1"
       id="path4"
       cx="5000"
       cy="4999.5"
       r="5000" />
    <rect
       style="opacity:0.55;fill:#000080;stroke-width:17.6769"
       id="rect4"
       width="14142"
       height="1175"
       x="-7071"
       y="-8246"
       transform="rotate(135)" />
    <rect
       style="opacity:0.55;fill:#000080;stroke-width:13.8891"
       id="rect5"
       width="2000"
       height="600"
       x="4000"
       y="0" />
    <rect
       style="opacity:0.55;fill:#000080;stroke-width:13.8891"
       id="rect5-5"
       width="2000"
       height="600"
       x="4000"
       y="-10000"
       transform="rotate(90)" />
    <rect
       style="opacity:0.55;fill:#000080;stroke-width:9.81785"
       id="rect5-5-0"
       width="999.67224"
       height="599.80334"
       x="-7562.4185"
       y="-5000.0405"
       transform="rotate(-135)" />
    <path
       style="opacity:0.55;fill:#ff8080;stroke-width:17.6769"
       d="M 1965.136,7818.9516 5504.6259,4069.0576 5159.704,3989.6826 2343.1683,6972.5881 Z"
       id="path5"
       sodipodi:nodetypes="ccccc" />
    <path
       style="opacity:0.55;fill:#800000;stroke-width:17.6769"
       d="M 1322.2399,7914.3989 4443.21,3809.6165 4091.8063,3767.3436 1608.1937,7032.6563 Z"
       id="path5-4"
       sodipodi:nodetypes="ccccc" />
    <path
       style="opacity:0.55;fill:#800000;stroke-width:17.6769"
       d="M 4329.9664,6108.5738 4442.1535,953.27458 4133.0142,1125.6252 4043.0326,5227.1495 Z"
       id="path5-4-9"
       sodipodi:nodetypes="ccccc" />
    <path
       style="opacity:0.55;fill:#ff8080;stroke-width:17.6769"
       d="M 3048.1685,7638.0024 6002.0959,4848.7959 5980.0193,4450.3893 2222.8258,7998.3264 Z"
       id="path5-3"
       sodipodi:nodetypes="ccccc" />
    <path
       style="fill:#ff0000;fill-opacity:1;fill-rule:nonzero;stroke:none"
       d="m 3648.671,5580.4867 246.0731,192.333 z"
       id="path6" />
    <path
       style="opacity:0.55;fill:#ff8080;stroke-width:17.6769"
       d="m 6146.18,5929.3001 4061.701,-89.1321 250.723,-310.4086 -5166.3791,113.5607 z"
       id="path5-3-1-7"
       sodipodi:nodetypes="ccccc" />
    <path
       style="opacity:0.55;fill:#ff8080;stroke-width:27.1112"
       d="m 1890,8110 6910,90 596.3824,-3714.1665 c 0,0 -744.123,789.3725 -925.8924,888.1264 C 8280.5279,5477.1649 5450,7124.7487 3650,7500 c -451.2751,94.0786 -1450,600 -1760,610 z"
       id="path5-3-1-7-1"
       sodipodi:nodetypes="cccssc" />
    <circle
       style="opacity:1;fill:#404000;stroke-width:0.367338;fill-opacity:0.5"
       id="path2-7"
       cy="7263"
       cx="2737"
       r="1800" />
    <path
       style="opacity:0.55;fill:#ff8080;stroke-width:17.6769"
       d="M 4457.7884,7256.9551 7691.383,4797.4377 7711.7676,4398.9408 3598.8295,7527.5347 Z"
       id="path5-3-9"
       sodipodi:nodetypes="ccccc" />
    <path
       id="path2"
       d="m 4542.021,7192.975 c 0,0 -5,6 -6,9 a 17,17 0 0 0 8,19 c 3,2 7,3 11,2 1520,-560 2060,-870 2960,-1320 -860,0 -1260,0 -1860,450 z m -1737,-1734 c 0,0 -6,5 -9,6 a 17,17 0 0 1 -19,-8 c -2,-3 -3,-7 -2,-10 560,-1520 877,-2060 1330,-2960 -10,350 -20,810 -20,810 -35,420 -210,750 -430,1050 z m 1358,705 q 7,-6 1795,-1696 a 170,170 0 0 0 54,-137 l -20,-294 a 34,34 0 0 0 -32,-32 l -292,-21 a 170,170 0 0 0 -137,53 l -1695,1799 c 164,131 264,246 328,330 m -538,-108 q -2,0 -1654,1750 a 85,85 0 0 0 -22,36 l -66,248 a 17,17 0 0 0 21,21 l 249,-66 a 85,85 0 0 0 37,-21 l 1750,-1652 c -85,-106 -144,-174 -316,-316 m 865,790 1170,-888 a 1717,1717 0 0 1 1006,-350 l 1123,-24 a 1288,1288 0 0 0 886,-377 l 723,-723 a 17,17 0 0 0 -13,-29 l -85,5 -2750,148 a 862,862 0 0 0 -544,235 l -1676,1583 c 71,120 122,270 160,420 m -1337,-1339 889,-1170 a 1723,1723 0 0 0 350,-1008 l 22,-1122 a 1287,1287 0 0 1 377,-886 l 721,-717 a 17,17 0 0 1 29,13 l -150,2829 a 858,858 0 0 1 -233,543 c 0,0 -1587,1677 -1584,1677 -163,-80 -173,-90 -423,-158 m 215,376 -1007,1067 a 17,17 0 0 1 -29,-16 l 123,-457 a 400,400 0 0 1 73,-148 l 452,-594 c 63,11 280,88 390,150 m 743,746 -1066,1006 a 17,17 0 0 0 16,29 l 457,-123 a 400,400 0 0 0 149,-73 l 594,-452 c -13,-56 -70,-240 -150,-390"
       style="display:inline"
       inkscape:label="logo" />
  </g>
</svg>
